<svg width="32" height="33" viewBox="0 0 32 33" fill="none" xmlns="http://www.w3.org/2000/svg">
<path d="M16 29.8333C23.3638 29.8333 29.3333 23.8638 29.3333 16.5C29.3333 9.13619 23.3638 3.16666 16 3.16666C8.63616 3.16666 2.66663 9.13619 2.66663 16.5C2.66663 23.8638 8.63616 29.8333 16 29.8333Z" stroke="white" stroke-width="2" stroke-linecap="round" stroke-linejoin="round"/>
<path d="M16 24.5C20.4183 24.5 24 20.9183 24 16.5C24 12.0817 20.4183 8.5 16 8.5C11.5817 8.5 8 12.0817 8 16.5C8 20.9183 11.5817 24.5 16 24.5Z" stroke="white" stroke-width="2" stroke-linecap="round" stroke-linejoin="round"/>
<path d="M16 19.1667C17.4728 19.1667 18.6667 17.9728 18.6667 16.5C18.6667 15.0272 17.4728 13.8333 16 13.8333C14.5273 13.8333 13.3334 15.0272 13.3334 16.5C13.3334 17.9728 14.5273 19.1667 16 19.1667Z" stroke="white" stroke-width="2" stroke-linecap="round" stroke-linejoin="round"/>
</svg>
